<svg version="1.1" viewBox="0.0 0.0 960.0 540.0" fill="none" stroke="none" stroke-linecap="square" stroke-miterlimit="10" xmlns:xlink="http://www.w3.org/1999/xlink" xmlns="http://www.w3.org/2000/svg"><clipPath id="p.0"><path d="m0 0l960.0 0l0 540.0l-960.0 0l0 -540.0z" clip-rule="nonzero"/></clipPath><g clip-path="url(#p.0)"><path fill="#3d3d3d" d="m0 0l960.0 0l0 540.0l-960.0 0z" fill-rule="evenodd"/><path fill="#6d9eeb" d="m466.23358 87.19423l0 0c0 -18.586342 15.06723 -33.653545 33.653564 -33.653545l0 0c8.925476 0 17.485352 3.5456314 23.79663 9.856892c6.3112793 6.311264 9.856934 14.871178 9.856934 23.796654l0 0c0 18.586334 -15.067261 33.65354 -33.653564 33.65354l0 0c-18.586334 0 -33.653564 -15.067207 -33.653564 -33.65354z" fill-rule="evenodd"/><path stroke="#000000" stroke-width="1.0" stroke-linejoin="round" stroke-linecap="butt" d="m466.23358 87.19423l0 0c0 -18.586342 15.06723 -33.653545 33.653564 -33.653545l0 0c8.925476 0 17.485352 3.5456314 23.79663 9.856892c6.3112793 6.311264 9.856934 14.871178 9.856934 23.796654l0 0c0 18.586334 -15.067261 33.65354 -33.653564 33.65354l0 0c-18.586334 0 -33.653564 -15.067207 -33.653564 -33.65354z" fill-rule="evenodd"/><path fill="#000000" d="m506.02612 83.11422l-1.921875 0l-1.328125 -3.78125l-5.875 0l-1.328125 3.78125l-1.828125 0l4.9375 -13.5625l2.40625 0l4.9375 13.5625zm-3.8125 -5.328125l-2.375 -6.65625l-2.390625 6.65625l4.765625 0z" fill-rule="nonzero"/><path fill="#000000" d="m503.40997 98.58297q0.4375 0.390625 0.71875 0.984375q0.28125 0.59375 0.28125 1.53125q0 0.921875 -0.34375 1.703125q-0.328125 0.765625 -0.9375 1.34375q-0.6875 0.640625 -1.609375 0.953125q-0.921875 0.296875 -2.03125 0.296875q-1.125 0 -2.21875 -0.265625q-1.09375 -0.265625 -1.796875 -0.59375l0 -1.90625l0.140625 0q0.78125 0.515625 1.828125 0.859375q1.046875 0.328125 2.015625 0.328125q0.578125 0 1.21875 -0.1875q0.65625 -0.1875 1.046875 -0.5625q0.421875 -0.40625 0.625 -0.890625q0.203125 -0.484375 0.203125 -1.21875q0 -0.71875 -0.234375 -1.203125q-0.21875 -0.484375 -0.640625 -0.75q-0.40625 -0.28125 -0.984375 -0.390625q-0.578125 -0.109375 -1.265625 -0.109375l-0.8125 0l0 -1.5l0.640625 0q1.375 0 2.203125 -0.578125q0.828125 -0.59375 0.828125 -1.703125q0 -0.484375 -0.21875 -0.84375q-0.203125 -0.375 -0.578125 -0.609375q-0.390625 -0.25 -0.84375 -0.328125q-0.4375 -0.09375 -1.0 -0.09375q-0.875 0 -1.84375 0.3125q-0.96875 0.296875 -1.84375 0.859375l-0.09375 0l0 -1.890625q0.65625 -0.328125 1.734375 -0.59375q1.078125 -0.265625 2.09375 -0.265625q0.984375 0 1.734375 0.1875q0.765625 0.171875 1.375 0.578125q0.65625 0.4375 0.984375 1.0625q0.34375 0.609375 0.34375 1.4375q0 1.125 -0.796875 1.96875q-0.796875 0.84375 -1.875 1.0625l0 0.125q0.4375 0.078125 1.0 0.3125q0.5625 0.234375 0.953125 0.578125z" fill-rule="nonzero"/><path fill="#6d9eeb" d="m154.2231 442.03674l0 0c0 -18.586334 15.0672 -33.653534 33.65355 -33.653534l0 0c8.925461 0 17.485382 3.5456238 23.796646 9.856873c6.311264 6.3112793 9.856888 14.871185 9.856888 23.796661l0 0c0 18.586334 -15.0672 33.653534 -33.653534 33.653534l0 0c-18.58635 0 -33.65355 -15.0672 -33.65355 -33.653534z" fill-rule="evenodd"/><path stroke="#000000" stroke-width="1.0" stroke-linejoin="round" stroke-linecap="butt" d="m154.2231 442.03674l0 0c0 -18.586334 15.0672 -33.653534 33.65355 -33.653534l0 0c8.925461 0 17.485382 3.5456238 23.796646 9.856873c6.311264 6.3112793 9.856888 14.871185 9.856888 23.796661l0 0c0 18.586334 -15.0672 33.653534 -33.653534 33.653534l0 0c-18.58635 0 -33.65355 -15.0672 -33.65355 -33.653534z" fill-rule="evenodd"/><path fill="#000000" d="m185.89108 459.95673l-7.34375 0l0 -1.390625l2.828125 0l0 -9.078125l-2.828125 0l0 -1.25q0.578125 0 1.234375 -0.09375q0.65625 -0.09375 0.984375 -0.28125q0.421875 -0.21875 0.65625 -0.5625q0.25 -0.359375 0.28125 -0.953125l1.421875 0l0 12.21875l2.765625 0l0 1.390625zm12.641815 0l-9.1875 0l0 -1.90625q0.953125 -0.8125 1.90625 -1.625q0.96875 -0.828125 1.796875 -1.640625q1.75 -1.703125 2.390625 -2.6875q0.65625 -1.0 0.65625 -2.15625q0 -1.0625 -0.703125 -1.65625q-0.6875 -0.59375 -1.9375 -0.59375q-0.828125 0 -1.796875 0.296875q-0.96875 0.28125 -1.890625 0.875l-0.09375 0l0 -1.90625q0.65625 -0.3125 1.734375 -0.578125q1.078125 -0.265625 2.09375 -0.265625q2.078125 0 3.265625 1.015625q1.1875 1.0 1.1875 2.71875q0 0.765625 -0.203125 1.4375q-0.1875 0.671875 -0.578125 1.28125q-0.34375 0.5625 -0.828125 1.109375q-0.484375 0.546875 -1.15625 1.203125q-0.984375 0.953125 -2.03125 1.859375q-1.03125 0.890625 -1.921875 1.65625l7.296875 0l0 1.5625z" fill-rule="nonzero"/><path fill="#6d9eeb" d="m244.41995 442.03674l0 0c0 -18.586334 15.0672 -33.653534 33.653534 -33.653534l0 0c8.925476 0 17.485382 3.5456238 23.796661 9.856873c6.311249 6.3112793 9.856873 14.871185 9.856873 23.796661l0 0c0 18.586334 -15.0672 33.653534 -33.653534 33.653534l0 0c-18.586334 0 -33.653534 -15.0672 -33.653534 -33.653534z" fill-rule="evenodd"/><path stroke="#000000" stroke-width="1.0" stroke-linejoin="round" stroke-linecap="butt" d="m244.41995 442.03674l0 0c0 -18.586334 15.0672 -33.653534 33.653534 -33.653534l0 0c8.925476 0 17.485382 3.5456238 23.796661 9.856873c6.311249 6.3112793 9.856873 14.871185 9.856873 23.796661l0 0c0 18.586334 -15.0672 33.653534 -33.653534 33.653534l0 0c-18.586334 0 -33.653534 -15.0672 -33.653534 -33.653534z" fill-rule="evenodd"/><path fill="#000000" d="m282.89322 456.17548q0 1.765625 -1.375 2.9375q-1.375 1.15625 -3.4375 1.15625q-2.21875 0 -3.53125 -1.140625q-1.296875 -1.140625 -1.296875 -2.921875q0 -1.125 0.65625 -2.03125q0.65625 -0.921875 1.84375 -1.453125l0 -0.0625q-1.09375 -0.578125 -1.625 -1.265625q-0.515625 -0.703125 -0.515625 -1.734375q0 -1.53125 1.25 -2.546875q1.265625 -1.03125 3.21875 -1.03125q2.03125 0 3.234375 0.984375q1.21875 0.96875 1.21875 2.46875q0 0.921875 -0.578125 1.8125q-0.578125 0.890625 -1.6875 1.390625l0 0.046875q1.28125 0.546875 1.953125 1.359375q0.671875 0.796875 0.671875 2.03125zm-2.15625 -6.625q0 -0.96875 -0.75 -1.546875q-0.75 -0.578125 -1.921875 -0.578125q-1.15625 0 -1.890625 0.546875q-0.71875 0.546875 -0.71875 1.46875q0 0.65625 0.359375 1.140625q0.375 0.46875 1.125 0.84375q0.328125 0.171875 0.953125 0.4375q0.640625 0.265625 1.25 0.4375q0.890625 -0.609375 1.234375 -1.25q0.359375 -0.65625 0.359375 -1.5zm0.28125 6.796875q0 -0.84375 -0.375 -1.34375q-0.359375 -0.5 -1.4375 -1.015625q-0.4375 -0.203125 -0.953125 -0.375q-0.5 -0.171875 -1.34375 -0.484375q-0.828125 0.453125 -1.328125 1.21875q-0.484375 0.765625 -0.484375 1.734375q0 1.21875 0.84375 2.03125q0.84375 0.796875 2.15625 0.796875q1.328125 0 2.125 -0.671875q0.796875 -0.6875 0.796875 -1.890625z" fill-rule="nonzero"/><path fill="#6d9eeb" d="m64.026245 442.03674l0 0c0 -18.586334 15.067207 -33.653534 33.65354 -33.653534l0 0c8.925476 0 17.48539 3.5456238 23.796654 9.856873c6.311264 6.3112793 9.856888 14.871185 9.856888 23.796661l0 0c0 18.586334 -15.0672 33.653534 -33.65354 33.653534l0 0c-18.586334 0 -33.65354 -15.0672 -33.65354 -33.653534z" fill-rule="evenodd"/><path stroke="#000000" stroke-width="1.0" stroke-linejoin="round" stroke-linecap="butt" d="m64.026245 442.03674l0 0c0 -18.586334 15.067207 -33.653534 33.65354 -33.653534l0 0c8.925476 0 17.48539 3.5456238 23.796654 9.856873c6.311264 6.3112793 9.856888 14.871185 9.856888 23.796661l0 0c0 18.586334 -15.0672 33.653534 -33.65354 33.653534l0 0c-18.586334 0 -33.65354 -15.0672 -33.65354 -33.653534z" fill-rule="evenodd"/><path fill="#000000" d="m101.20264 453.42548q0.4375 0.390625 0.71875 0.984375q0.28125 0.59375 0.28125 1.53125q0 0.921875 -0.34375 1.703125q-0.328125 0.765625 -0.9375 1.34375q-0.6875 0.640625 -1.609375 0.953125q-0.921875 0.296875 -2.03125 0.296875q-1.125 0 -2.21875 -0.265625q-1.09375 -0.265625 -1.796875 -0.59375l0 -1.90625l0.140625 0q0.78125 0.515625 1.828125 0.859375q1.046875 0.328125 2.015625 0.328125q0.578125 0 1.21875 -0.1875q0.65625 -0.1875 1.046875 -0.5625q0.421875 -0.40625 0.625 -0.890625q0.203125 -0.484375 0.203125 -1.21875q0 -0.71875 -0.234375 -1.203125q-0.21875 -0.484375 -0.640625 -0.75q-0.40625 -0.28125 -0.984375 -0.390625q-0.578125 -0.109375 -1.265625 -0.109375l-0.8125 0l0 -1.5l0.640625 0q1.375 0 2.203125 -0.578125q0.828125 -0.59375 0.828125 -1.703125q0 -0.484375 -0.21875 -0.84375q-0.203125 -0.375 -0.578125 -0.609375q-0.390625 -0.25 -0.84375 -0.328125q-0.4375 -0.09375 -1.0 -0.09375q-0.875 0 -1.84375 0.3125q-0.96875 0.296875 -1.84375 0.859375l-0.09375 0l0 -1.890625q0.65625 -0.328125 1.734375 -0.59375q1.078125 -0.265625 2.09375 -0.265625q0.984375 0 1.734375 0.1875q0.765625 0.171875 1.375 0.578125q0.65625 0.4375 0.984375 1.0625q0.34375 0.609375 0.34375 1.4375q0 1.125 -0.796875 1.96875q-0.796875 0.84375 -1.875 1.0625l0 0.125q0.4375 0.078125 1.0 0.3125q0.5625 0.234375 0.953125 0.578125z" fill-rule="nonzero"/><path fill="#6d9eeb" d="m466.23358 438.1496l0 0c0 -18.586334 15.06723 -33.653534 33.653564 -33.653534l0 0c8.925476 0 17.485352 3.5456238 23.79663 9.856903c6.3112793 6.311249 9.856934 14.871155 9.856934 23.79663l0 0c0 18.586334 -15.067261 33.653564 -33.653564 33.653564l0 0c-18.586334 0 -33.653564 -15.06723 -33.653564 -33.653564z" fill-rule="evenodd"/><path stroke="#000000" stroke-width="1.0" stroke-linejoin="round" stroke-linecap="butt" d="m466.23358 438.1496l0 0c0 -18.586334 15.06723 -33.653534 33.653564 -33.653534l0 0c8.925476 0 17.485352 3.5456238 23.79663 9.856903c6.3112793 6.311249 9.856934 14.871155 9.856934 23.79663l0 0c0 18.586334 -15.067261 33.653564 -33.653564 33.653564l0 0c-18.586334 0 -33.653564 -15.06723 -33.653564 -33.653564z" fill-rule="evenodd"/><path fill="#000000" d="m504.90997 452.2571l-2.0 0l0 3.8125l-1.75 0l0 -3.8125l-6.5 0l0 -2.09375l6.5625 -7.65625l1.6875 0l0 8.28125l2.0 0l0 1.46875zm-3.75 -1.46875l0 -6.109375l-5.265625 6.109375l5.265625 0z" fill-rule="nonzero"/><path fill="#6d9eeb" d="m556.4304 438.1496l0 0c0 -18.586334 15.067261 -33.653534 33.653564 -33.653534l0 0c8.925476 0 17.485413 3.5456238 23.79663 9.856903c6.3112793 6.311249 9.856934 14.871155 9.856934 23.79663l0 0c0 18.586334 -15.0672 33.653564 -33.653564 33.653564l0 0c-18.586304 0 -33.653564 -15.06723 -33.653564 -33.653564z" fill-rule="evenodd"/><path stroke="#000000" stroke-width="1.0" stroke-linejoin="round" stroke-linecap="butt" d="m556.4304 438.1496l0 0c0 -18.586334 15.067261 -33.653534 33.653564 -33.653534l0 0c8.925476 0 17.485413 3.5456238 23.79663 9.856903c6.3112793 6.311249 9.856934 14.871155 9.856934 23.79663l0 0c0 18.586334 -15.0672 33.653564 -33.653564 33.653564l0 0c-18.586304 0 -33.653564 -15.06723 -33.653564 -33.653564z" fill-rule="evenodd"/><path fill="#000000" d="m594.99744 451.66336q0 2.078125 -1.359375 3.390625q-1.359375 1.296875 -3.328125 1.296875q-1.015625 0 -1.84375 -0.3125q-0.8125 -0.3125 -1.4375 -0.921875q-0.78125 -0.75 -1.203125 -2.0q-0.421875 -1.25 -0.421875 -3.0q0 -1.8125 0.375 -3.203125q0.390625 -1.390625 1.25 -2.484375q0.796875 -1.015625 2.0625 -1.59375q1.265625 -0.578125 2.953125 -0.578125q0.53125 0 0.890625 0.046875q0.375 0.03125 0.75 0.15625l0 1.734375l-0.09375 0q-0.25 -0.125 -0.765625 -0.25q-0.515625 -0.125 -1.0625 -0.125q-1.953125 0 -3.125 1.234375q-1.15625 1.21875 -1.34375 3.296875q0.765625 -0.46875 1.5 -0.703125q0.75 -0.234375 1.71875 -0.234375q0.859375 0 1.515625 0.15625q0.671875 0.15625 1.359375 0.640625q0.796875 0.546875 1.203125 1.40625q0.40625 0.84375 0.40625 2.046875zm-1.84375 0.078125q0 -0.84375 -0.25 -1.390625q-0.25 -0.5625 -0.828125 -0.984375q-0.421875 -0.28125 -0.9375 -0.375q-0.5 -0.09375 -1.046875 -0.09375q-0.78125 0 -1.453125 0.1875q-0.65625 0.171875 -1.359375 0.5625q-0.015625 0.203125 -0.03125 0.390625q0 0.1875 0 0.46875q0 1.4375 0.296875 2.28125q0.296875 0.828125 0.8125 1.296875q0.421875 0.40625 0.90625 0.59375q0.484375 0.1875 1.0625 0.1875q1.3125 0 2.0625 -0.796875q0.765625 -0.8125 0.765625 -2.328125z" fill-rule="nonzero"/><path fill="#6d9eeb" d="m376.03674 438.1496l0 0c0 -18.586334 15.0672 -33.653534 33.653534 -33.653534l0 0c8.925476 0 17.485382 3.5456238 23.796661 9.856903c6.311249 6.311249 9.856903 14.871155 9.856903 23.79663l0 0c0 18.586334 -15.0672 33.653564 -33.653564 33.653564l0 0c-18.586334 0 -33.653534 -15.06723 -33.653534 -33.653564z" fill-rule="evenodd"/><path stroke="#000000" stroke-width="1.0" stroke-linejoin="round" stroke-linecap="butt" d="m376.03674 438.1496l0 0c0 -18.586334 15.0672 -33.653534 33.653534 -33.653534l0 0c8.925476 0 17.485382 3.5456238 23.796661 9.856903c6.311249 6.311249 9.856903 14.871155 9.856903 23.79663l0 0c0 18.586334 -15.0672 33.653564 -33.653564 33.653564l0 0c-18.586334 0 -33.653534 -15.06723 -33.653534 -33.653564z" fill-rule="evenodd"/><path fill="#000000" d="m414.41626 456.0696l-9.1875 0l0 -1.90625q0.953125 -0.8125 1.90625 -1.625q0.96875 -0.828125 1.796875 -1.640625q1.75 -1.703125 2.390625 -2.6875q0.65625 -1.0 0.65625 -2.15625q0 -1.0625 -0.703125 -1.65625q-0.6875 -0.59375 -1.9375 -0.59375q-0.828125 0 -1.796875 0.296875q-0.96875 0.28125 -1.890625 0.875l-0.09375 0l0 -1.90625q0.65625 -0.3125 1.734375 -0.578125q1.078125 -0.265625 2.09375 -0.265625q2.078125 0 3.265625 1.015625q1.1875 1.0 1.1875 2.71875q0 0.765625 -0.203125 1.4375q-0.1875 0.671875 -0.578125 1.28125q-0.34375 0.5625 -0.828125 1.109375q-0.484375 0.546875 -1.15625 1.203125q-0.984375 0.953125 -2.03125 1.859375q-1.03125 0.890625 -1.921875 1.65625l7.296875 0l0 1.5625z" fill-rule="nonzero"/><path fill="#6d9eeb" d="m778.2441 438.1496l0 0c0 -18.586334 15.0672 -33.653534 33.653564 -33.653534l0 0c8.925476 0 17.485352 3.5456238 23.79663 9.856903c6.3112793 6.311249 9.856934 14.871155 9.856934 23.79663l0 0c0 18.586334 -15.067261 33.653564 -33.653564 33.653564l0 0c-18.586365 0 -33.653564 -15.06723 -33.653564 -33.653564z" fill-rule="evenodd"/><path stroke="#000000" stroke-width="1.0" stroke-linejoin="round" stroke-linecap="butt" d="m778.2441 438.1496l0 0c0 -18.586334 15.0672 -33.653534 33.653564 -33.653534l0 0c8.925476 0 17.485352 3.5456238 23.79663 9.856903c6.3112793 6.311249 9.856934 14.871155 9.856934 23.79663l0 0c0 18.586334 -15.067261 33.653564 -33.653564 33.653564l0 0c-18.586365 0 -33.653564 -15.06723 -33.653564 -33.653564z" fill-rule="evenodd"/><path fill="#000000" d="m816.5142 451.7571q0 0.953125 -0.359375 1.828125q-0.34375 0.859375 -0.9375 1.453125q-0.65625 0.625 -1.5625 0.96875q-0.90625 0.34375 -2.109375 0.34375q-1.109375 0 -2.140625 -0.234375q-1.03125 -0.234375 -1.734375 -0.5625l0 -1.921875l0.125 0q0.75 0.484375 1.75 0.8125q1.0 0.328125 1.96875 0.328125q0.640625 0 1.25 -0.171875q0.609375 -0.1875 1.078125 -0.640625q0.40625 -0.390625 0.609375 -0.9375q0.203125 -0.546875 0.203125 -1.265625q0 -0.703125 -0.25 -1.1875q-0.234375 -0.484375 -0.65625 -0.78125q-0.46875 -0.34375 -1.15625 -0.484375q-0.671875 -0.140625 -1.515625 -0.140625q-0.796875 0 -1.546875 0.109375q-0.734375 0.109375 -1.28125 0.21875l0 -6.984375l8.171875 0l0 1.59375l-6.40625 0l0 3.609375q0.390625 -0.046875 0.796875 -0.0625q0.40625 -0.015625 0.71875 -0.015625q1.09375 0 1.921875 0.1875q0.828125 0.1875 1.53125 0.65625q0.71875 0.5 1.125 1.296875q0.40625 0.796875 0.40625 1.984375z" fill-rule="nonzero"/><path fill="#6d9eeb" d="m868.4409 438.1496l0 0c0 -18.586334 15.067261 -33.653534 33.653564 -33.653534l0 0c8.925476 0 17.485413 3.5456238 23.79663 9.856903c6.3112793 6.311249 9.856934 14.871155 9.856934 23.79663l0 0c0 18.586334 -15.0672 33.653564 -33.653564 33.653564l0 0c-18.586304 0 -33.653564 -15.06723 -33.653564 -33.653564z" fill-rule="evenodd"/><path stroke="#000000" stroke-width="1.0" stroke-linejoin="round" stroke-linecap="butt" d="m868.4409 438.1496l0 0c0 -18.586334 15.067261 -33.653534 33.653564 -33.653534l0 0c8.925476 0 17.485413 3.5456238 23.79663 9.856903c6.3112793 6.311249 9.856934 14.871155 9.856934 23.79663l0 0c0 18.586334 -15.0672 33.653564 -33.653564 33.653564l0 0c-18.586304 0 -33.653564 -15.06723 -33.653564 -33.653564z" fill-rule="evenodd"/><path fill="#000000" d="m906.82043 456.0696l-9.1875 0l0 -1.90625q0.953125 -0.8125 1.90625 -1.625q0.96875 -0.828125 1.796875 -1.640625q1.75 -1.703125 2.390625 -2.6875q0.65625 -1.0 0.65625 -2.15625q0 -1.0625 -0.703125 -1.65625q-0.6875 -0.59375 -1.9375 -0.59375q-0.828125 0 -1.796875 0.296875q-0.96875 0.28125 -1.890625 0.875l-0.09375 0l0 -1.90625q0.65625 -0.3125 1.734375 -0.578125q1.078125 -0.265625 2.09375 -0.265625q2.078125 0 3.265625 1.015625q1.1875 1.0 1.1875 2.71875q0 0.765625 -0.203125 1.4375q-0.1875 0.671875 -0.578125 1.28125q-0.34375 0.5625 -0.828125 1.109375q-0.484375 0.546875 -1.15625 1.203125q-0.984375 0.953125 -2.03125 1.859375q-1.03125 0.890625 -1.921875 1.65625l7.296875 0l0 1.5625z" fill-rule="nonzero"/><path fill="#6d9eeb" d="m688.04724 438.1496l0 0c0 -18.586334 15.0672 -33.653534 33.653564 -33.653534l0 0c8.925476 0 17.485352 3.5456238 23.79663 9.856903c6.3112793 6.311249 9.856873 14.871155 9.856873 23.79663l0 0c0 18.586334 -15.0672 33.653564 -33.653503 33.653564l0 0c-18.586365 0 -33.653564 -15.06723 -33.653564 -33.653564z" fill-rule="evenodd"/><path stroke="#000000" stroke-width="1.0" stroke-linejoin="round" stroke-linecap="butt" d="m688.04724 438.1496l0 0c0 -18.586334 15.0672 -33.653534 33.653564 -33.653534l0 0c8.925476 0 17.485352 3.5456238 23.79663 9.856903c6.3112793 6.311249 9.856873 14.871155 9.856873 23.79663l0 0c0 18.586334 -15.0672 33.653564 -33.653503 33.653564l0 0c-18.586365 0 -33.653564 -15.06723 -33.653564 -33.653564z" fill-rule="evenodd"/><path fill="#000000" d="m719.7152 456.0696l-7.34375 0l0 -1.390625l2.828125 0l0 -9.078125l-2.828125 0l0 -1.25q0.578125 0 1.234375 -0.09375q0.65625 -0.09375 0.984375 -0.28125q0.421875 -0.21875 0.65625 -0.5625q0.25 -0.359375 0.28125 -0.953125l1.421875 0l0 12.21875l2.765625 0l0 1.390625zm12.938721 -3.8125l-2.0 0l0 3.8125l-1.75 0l0 -3.8125l-6.5 0l0 -2.09375l6.5625 -7.65625l1.6875 0l0 8.28125l2.0 0l0 1.46875zm-3.75 -1.46875l0 -6.109375l-5.265625 6.109375l5.265625 0z" fill-rule="nonzero"/><path fill="#f6b26b" d="m466.23358 262.6719l0 0c0 -18.586334 15.06723 -33.653534 33.653564 -33.653534l0 0c8.925476 0 17.485352 3.545639 23.79663 9.856903c6.3112793 6.311249 9.856934 14.87117 9.856934 23.79663l0 0c0 18.586334 -15.067261 33.653564 -33.653564 33.653564l0 0c-18.586334 0 -33.653564 -15.06723 -33.653564 -33.653564z" fill-rule="evenodd"/><path stroke="#000000" stroke-width="1.0" stroke-linejoin="round" stroke-linecap="butt" d="m466.23358 262.6719l0 0c0 -18.586334 15.06723 -33.653534 33.653564 -33.653534l0 0c8.925476 0 17.485352 3.545639 23.79663 9.856903c6.3112793 6.311249 9.856934 14.87117 9.856934 23.79663l0 0c0 18.586334 -15.067261 33.653564 -33.653564 33.653564l0 0c-18.586334 0 -33.653564 -15.06723 -33.653564 -33.653564z" fill-rule="evenodd"/><path fill="#000000" d="m505.67072 257.60754q-0.5 0.21875 -0.90625 0.421875q-0.40625 0.1875 -1.0625 0.390625q-0.546875 0.171875 -1.203125 0.296875q-0.65625 0.125 -1.4375 0.125q-1.46875 0 -2.6875 -0.40625q-1.203125 -0.421875 -2.09375 -1.3125q-0.875 -0.859375 -1.375 -2.1875q-0.484375 -1.34375 -0.484375 -3.109375q0 -1.671875 0.46875 -3.0q0.484375 -1.328125 1.375 -2.234375q0.859375 -0.875 2.078125 -1.34375q1.234375 -0.46875 2.734375 -0.46875q1.09375 0 2.171875 0.265625q1.09375 0.265625 2.421875 0.9375l0 2.140625l-0.140625 0q-1.109375 -0.953125 -2.21875 -1.375q-1.09375 -0.421875 -2.359375 -0.421875q-1.03125 0 -1.859375 0.328125q-0.8125 0.328125 -1.46875 1.03125q-0.625 0.6875 -0.984375 1.734375q-0.34375 1.03125 -0.34375 2.40625q0 1.421875 0.390625 2.453125q0.390625 1.03125 1.0 1.6875q0.640625 0.671875 1.484375 1.0q0.859375 0.3125 1.796875 0.3125q1.3125 0 2.4375 -0.4375q1.140625 -0.453125 2.140625 -1.34375l0.125 0l0 2.109375z" fill-rule="nonzero"/><path fill="#000000" d="m504.6131 280.59192l-9.1875 0l0 -1.90625q0.953125 -0.8125 1.90625 -1.625q0.96875 -0.828125 1.796875 -1.640625q1.75 -1.703125 2.390625 -2.6875q0.65625 -1.0 0.65625 -2.15625q0 -1.0625 -0.703125 -1.65625q-0.6875 -0.59375 -1.9375 -0.59375q-0.828125 0 -1.796875 0.296875q-0.96875 0.28125 -1.890625 0.875l-0.09375 0l0 -1.90625q0.65625 -0.3125 1.734375 -0.578125q1.078125 -0.265625 2.09375 -0.265625q2.078125 0 3.265625 1.015625q1.1875 1.0 1.1875 2.71875q0 0.765625 -0.203125 1.4375q-0.1875 0.671875 -0.578125 1.28125q-0.34375 0.5625 -0.828125 1.109375q-0.484375 0.546875 -1.15625 1.203125q-0.984375 0.953125 -2.03125 1.859375q-1.03125 0.890625 -1.921875 1.65625l7.296875 0l0 1.5625z" fill-rule="nonzero"/><path fill="#f6b26b" d="m778.2441 269.2362l0 0c0 -18.586319 15.0672 -33.653534 33.653564 -33.653534l0 0c8.925476 0 17.485352 3.545639 23.79663 9.856903c6.3112793 6.311264 9.856934 14.871185 9.856934 23.79663l0 0c0 18.586365 -15.067261 33.653564 -33.653564 33.653564l0 0c-18.586365 0 -33.653564 -15.0672 -33.653564 -33.653564z" fill-rule="evenodd"/><path stroke="#000000" stroke-width="1.0" stroke-linejoin="round" stroke-linecap="butt" d="m778.2441 269.2362l0 0c0 -18.586319 15.0672 -33.653534 33.653564 -33.653534l0 0c8.925476 0 17.485352 3.545639 23.79663 9.856903c6.3112793 6.311264 9.856934 14.871185 9.856934 23.79663l0 0c0 18.586365 -15.067261 33.653564 -33.653564 33.653564l0 0c-18.586365 0 -33.653564 -15.0672 -33.653564 -33.653564z" fill-rule="evenodd"/><path fill="#000000" d="m817.9915 258.3906q0 1.84375 -0.8125 3.359375q-0.796875 1.5 -2.140625 2.328125q-0.921875 0.5625 -2.078125 0.828125q-1.140625 0.25 -3.0 0.25l-3.421875 0l0 -13.5625l3.375 0q2.0 0 3.15625 0.296875q1.171875 0.28125 1.984375 0.78125q1.390625 0.859375 2.15625 2.296875q0.78125 1.4375 0.78125 3.421875zm-1.890625 -0.03125q0 -1.59375 -0.5625 -2.6875q-0.546875 -1.09375 -1.640625 -1.71875q-0.8125 -0.453125 -1.71875 -0.625q-0.890625 -0.1875 -2.15625 -0.1875l-1.6875 0l0 10.46875l1.6875 0q1.3125 0 2.28125 -0.1875q0.96875 -0.203125 1.78125 -0.71875q1.015625 -0.640625 1.515625 -1.6875q0.5 -1.0625 0.5 -2.65625z" fill-rule="nonzero"/><path fill="#000000" d="m816.6236 287.15622l-9.1875 0l0 -1.90625q0.953125 -0.8125 1.90625 -1.625q0.96875 -0.828125 1.796875 -1.640625q1.75 -1.703125 2.390625 -2.6875q0.65625 -1.0 0.65625 -2.15625q0 -1.0625 -0.703125 -1.65625q-0.6875 -0.59375 -1.9375 -0.59375q-0.828125 0 -1.796875 0.296875q-0.96875 0.28125 -1.890625 0.875l-0.09375 0l0 -1.90625q0.65625 -0.3125 1.734375 -0.578125q1.078125 -0.265625 2.09375 -0.265625q2.078125 0 3.265625 1.015625q1.1875 1.0 1.1875 2.71875q0 0.765625 -0.203125 1.4375q-0.1875 0.671875 -0.578125 1.28125q-0.34375 0.5625 -0.828125 1.109375q-0.484375 0.546875 -1.15625 1.203125q-0.984375 0.953125 -2.03125 1.859375q-1.03125 0.890625 -1.921875 1.65625l7.296875 0l0 1.5625z" fill-rule="nonzero"/><path fill="#f6b26b" d="m154.2231 269.2362l0 0c0 -18.586319 15.0672 -33.653534 33.65355 -33.653534l0 0c8.925461 0 17.485382 3.545639 23.796646 9.856903c6.311264 6.311264 9.856888 14.871185 9.856888 23.79663l0 0c0 18.586365 -15.0672 33.653564 -33.653534 33.653564l0 0c-18.58635 0 -33.65355 -15.0672 -33.65355 -33.653564z" fill-rule="evenodd"/><path stroke="#000000" stroke-width="1.0" stroke-linejoin="round" stroke-linecap="butt" d="m154.2231 269.2362l0 0c0 -18.586319 15.0672 -33.653534 33.65355 -33.653534l0 0c8.925461 0 17.485382 3.545639 23.796646 9.856903c6.311264 6.311264 9.856888 14.871185 9.856888 23.79663l0 0c0 18.586365 -15.0672 33.653564 -33.653534 33.653564l0 0c-18.58635 0 -33.65355 -15.0672 -33.65355 -33.653564z" fill-rule="evenodd"/><path fill="#000000" d="m193.52866 260.98434q0 1.015625 -0.390625 1.796875q-0.375 0.765625 -1.015625 1.265625q-0.765625 0.59375 -1.6875 0.859375q-0.90625 0.25 -2.328125 0.25l-4.796875 0l0 -13.5625l4.015625 0q1.484375 0 2.21875 0.109375q0.734375 0.109375 1.40625 0.453125q0.75 0.390625 1.078125 1.015625q0.34375 0.609375 0.34375 1.46875q0 0.953125 -0.5 1.640625q-0.484375 0.671875 -1.296875 1.09375l0 0.0625q1.375 0.28125 2.15625 1.21875q0.796875 0.921875 0.796875 2.328125zm-3.03125 -6.109375q0 -0.5 -0.171875 -0.828125q-0.15625 -0.34375 -0.515625 -0.546875q-0.4375 -0.25 -1.046875 -0.3125q-0.609375 -0.0625 -1.5 -0.0625l-2.15625 0l0 3.921875l2.328125 0q0.859375 0 1.359375 -0.078125q0.5 -0.09375 0.921875 -0.359375q0.421875 -0.28125 0.59375 -0.703125q0.1875 -0.4375 0.1875 -1.03125zm1.15625 6.1875q0 -0.828125 -0.25 -1.3125q-0.234375 -0.484375 -0.890625 -0.8125q-0.4375 -0.234375 -1.0625 -0.296875q-0.625 -0.078125 -1.515625 -0.078125l-2.828125 0l0 5.046875l2.390625 0q1.1875 0 1.9375 -0.109375q0.75 -0.125 1.234375 -0.453125q0.515625 -0.359375 0.75 -0.8125q0.234375 -0.453125 0.234375 -1.171875z" fill-rule="nonzero"/><path fill="#000000" d="m191.39949 280.62497q0.4375 0.390625 0.71875 0.984375q0.28125 0.59375 0.28125 1.53125q0 0.921875 -0.34375 1.703125q-0.328125 0.765625 -0.9375 1.34375q-0.6875 0.640625 -1.609375 0.953125q-0.921875 0.296875 -2.03125 0.296875q-1.125 0 -2.21875 -0.265625q-1.09375 -0.265625 -1.796875 -0.59375l0 -1.90625l0.140625 0q0.78125 0.515625 1.828125 0.859375q1.046875 0.328125 2.015625 0.328125q0.578125 0 1.21875 -0.1875q0.65625 -0.1875 1.046875 -0.5625q0.421875 -0.40625 0.625 -0.890625q0.203125 -0.484375 0.203125 -1.21875q0 -0.71875 -0.234375 -1.203125q-0.21875 -0.484375 -0.640625 -0.75q-0.40625 -0.28125 -0.984375 -0.390625q-0.578125 -0.109375 -1.265625 -0.109375l-0.8125 0l0 -1.5l0.640625 0q1.375 0 2.203125 -0.578125q0.828125 -0.59375 0.828125 -1.703125q0 -0.484375 -0.21875 -0.84375q-0.203125 -0.375 -0.578125 -0.609375q-0.390625 -0.25 -0.84375 -0.328125q-0.4375 -0.09375 -1.0 -0.09375q-0.875 0 -1.84375 0.3125q-0.96875 0.296875 -1.84375 0.859375l-0.09375 0l0 -1.890625q0.65625 -0.328125 1.734375 -0.59375q1.078125 -0.265625 2.09375 -0.265625q0.984375 0 1.734375 0.1875q0.765625 0.171875 1.375 0.578125q0.65625 0.4375 0.984375 1.0625q0.34375 0.609375 0.34375 1.4375q0 1.125 -0.796875 1.96875q-0.796875 0.84375 -1.875 1.0625l0 0.125q0.4375 0.078125 1.0 0.3125q0.5625 0.234375 0.953125 0.578125z" fill-rule="nonzero"/><path fill="#000000" fill-opacity="0.0" d="m187.87665 235.58267l312.0 -114.74015" fill-rule="evenodd"/><path stroke="#000000" stroke-width="1.0" stroke-linejoin="round" stroke-linecap="butt" d="m187.87665 235.58267l312.0 -114.74015" fill-rule="evenodd"/><path fill="#000000" fill-opacity="0.0" d="m499.88715 120.86089l0 108.15748" fill-rule="evenodd"/><path stroke="#000000" stroke-width="1.0" stroke-linejoin="round" stroke-linecap="butt" d="m499.88715 120.86089l0 108.15748" fill-rule="evenodd"/><path fill="#000000" fill-opacity="0.0" d="m499.88715 120.84777l312.0 114.74015" fill-rule="evenodd"/><path stroke="#000000" stroke-width="1.0" stroke-linejoin="round" stroke-linecap="butt" d="m499.88715 120.84777l312.0 114.74015" fill-rule="evenodd"/><path fill="#000000" fill-opacity="0.0" d="m499.88715 296.32547l0 108.15747" fill-rule="evenodd"/><path stroke="#000000" stroke-width="1.0" stroke-linejoin="round" stroke-linecap="butt" d="m499.88715 296.32547l0 108.15747" fill-rule="evenodd"/><path fill="#000000" fill-opacity="0.0" d="m499.88715 296.32547l90.20471 108.15747" fill-rule="evenodd"/><path stroke="#000000" stroke-width="1.0" stroke-linejoin="round" stroke-linecap="butt" d="m499.88715 296.32547l90.20471 108.15747" fill-rule="evenodd"/><path fill="#000000" fill-opacity="0.0" d="m499.88715 296.32547l-90.20474 108.15747" fill-rule="evenodd"/><path stroke="#000000" stroke-width="1.0" stroke-linejoin="round" stroke-linecap="butt" d="m499.88715 296.32547l-90.20474 108.15747" fill-rule="evenodd"/><path fill="#000000" fill-opacity="0.0" d="m811.9055 302.88977l-90.20471 101.60629" fill-rule="evenodd"/><path stroke="#000000" stroke-width="1.0" stroke-linejoin="round" stroke-linecap="butt" d="m811.9055 302.88977l-90.20471 101.60629" fill-rule="evenodd"/><path fill="#000000" fill-opacity="0.0" d="m811.89764 302.88977l0 101.60629" fill-rule="evenodd"/><path stroke="#000000" stroke-width="1.0" stroke-linejoin="round" stroke-linecap="butt" d="m811.89764 302.88977l0 101.60629" fill-rule="evenodd"/><path fill="#000000" fill-opacity="0.0" d="m811.89764 302.88977l90.20471 101.60629" fill-rule="evenodd"/><path stroke="#000000" stroke-width="1.0" stroke-linejoin="round" stroke-linecap="butt" d="m811.89764 302.88977l90.20471 101.60629" fill-rule="evenodd"/><path fill="#000000" fill-opacity="0.0" d="m187.87665 302.88977l90.20471 105.480316" fill-rule="evenodd"/><path stroke="#000000" stroke-width="1.0" stroke-linejoin="round" stroke-linecap="butt" d="m187.87665 302.88977l90.20471 105.480316" fill-rule="evenodd"/><path fill="#000000" fill-opacity="0.0" d="m187.87665 302.88977l0 105.480316" fill-rule="evenodd"/><path stroke="#000000" stroke-width="1.0" stroke-linejoin="round" stroke-linecap="butt" d="m187.87665 302.88977l0 105.480316" fill-rule="evenodd"/><path fill="#000000" fill-opacity="0.0" d="m187.87665 302.88977l-90.204735 105.480316" fill-rule="evenodd"/><path stroke="#000000" stroke-width="1.0" stroke-linejoin="round" stroke-linecap="butt" d="m187.87665 302.88977l-90.204735 105.480316" fill-rule="evenodd"/><path fill="#000000" fill-opacity="0.0" d="m398.9265 64.56431l67.30707 0l0 45.259842l-67.30707 0z" fill-rule="evenodd"/><path fill="#ffffff" d="m423.81714 94.044304l-2.0625 0l0 -13.359375l-4.3125 9.09375l-1.21875 0l-4.28125 -9.09375l0 13.359375l-1.9375 0l0 -15.5l2.8125 0l4.140625 8.625l4.0 -8.625l2.859375 0l0 15.5zm13.052887 0l-1.953125 0l0 -1.234375q-0.25 0.171875 -0.703125 0.5q-0.4375 0.3125 -0.859375 0.5q-0.484375 0.234375 -1.125 0.390625q-0.625 0.171875 -1.484375 0.171875q-1.578125 0 -2.671875 -1.046875q-1.09375 -1.046875 -1.09375 -2.65625q0 -1.328125 0.5625 -2.140625q0.578125 -0.8125 1.625 -1.28125q1.0625 -0.46875 2.546875 -0.640625q1.5 -0.171875 3.203125 -0.25l0 -0.296875q0 -0.671875 -0.234375 -1.109375q-0.234375 -0.4375 -0.671875 -0.6875q-0.40625 -0.234375 -1.0 -0.3125q-0.578125 -0.09375 -1.21875 -0.09375q-0.765625 0 -1.71875 0.203125q-0.9375 0.203125 -1.953125 0.59375l-0.109375 0l0 -1.984375q0.578125 -0.15625 1.65625 -0.34375q1.09375 -0.1875 2.140625 -0.1875q1.234375 0 2.140625 0.203125q0.90625 0.203125 1.578125 0.6875q0.65625 0.46875 1.0 1.234375q0.34375 0.765625 0.34375 1.890625l0 7.890625zm-1.953125 -2.859375l0 -3.25q-0.890625 0.0625 -2.109375 0.171875q-1.203125 0.09375 -1.921875 0.296875q-0.84375 0.234375 -1.359375 0.75q-0.515625 0.5 -0.515625 1.375q0 1.0 0.59375 1.515625q0.609375 0.5 1.84375 0.5q1.03125 0 1.890625 -0.390625q0.859375 -0.40625 1.578125 -0.96875zm15.793762 2.859375l-2.46875 0l-3.296875 -4.46875l-3.328125 4.46875l-2.28125 0l4.546875 -5.796875l-4.5 -5.828125l2.46875 0l3.28125 4.390625l3.28125 -4.390625l2.296875 0l-4.578125 5.71875l4.578125 5.90625z" fill-rule="nonzero"/><path fill="#000000" fill-opacity="0.0" d="m86.91601 246.6063l67.30709 0l0 45.259857l-67.30709 0z" fill-rule="evenodd"/><path fill="#ffffff" d="m111.80663 276.0863l-2.0625 0l0 -13.359375l-4.3125 9.09375l-1.21875 0l-4.28125 -9.09375l0 13.359375l-1.9375 0l0 -15.5l2.8125 0l4.140625 8.625l4.0 -8.625l2.859375 0l0 15.5zm6.115402 -13.578125l-2.203125 0l0 -2.03125l2.203125 0l0 2.03125zm-0.125 13.578125l-1.953125 0l0 -11.625l1.953125 0l0 11.625zm13.602745 0l-1.953125 0l0 -6.625q0 -0.796875 -0.09375 -1.5q-0.09375 -0.703125 -0.34375 -1.109375q-0.265625 -0.4375 -0.765625 -0.640625q-0.48438263 -0.21875 -1.2656326 -0.21875q-0.796875 0 -1.671875 0.40625q-0.875 0.390625 -1.671875 1.0l0 8.6875l-1.96875 0l0 -11.625l1.96875 0l0 1.28125q0.90625 -0.75 1.890625 -1.171875q0.984375 -0.4375 2.015625 -0.4375q1.8750076 0 2.8593826 1.140625q1.0 1.125 1.0 3.265625l0 7.546875z" fill-rule="nonzero"/><path fill="#000000" fill-opacity="0.0" d="m0 419.40683l67.30708 0l0 45.259827l-67.30708 0z" fill-rule="evenodd"/><path fill="#ffffff" d="m24.890625 448.8868l-2.0625 0l0 -13.359375l-4.3125 9.09375l-1.21875 0l-4.28125 -9.09375l0 13.359375l-1.9375 0l0 -15.5l2.8125 0l4.140625 8.625l4.0 -8.625l2.859375 0l0 15.5zm13.052902 0l-1.953125 0l0 -1.234375q-0.25 0.171875 -0.703125 0.5q-0.4375 0.3125 -0.859375 0.5q-0.484375 0.234375 -1.125 0.390625q-0.625 0.171875 -1.484375 0.171875q-1.578125 0 -2.671875 -1.046875q-1.09375 -1.046875 -1.09375 -2.65625q0 -1.328125 0.5625 -2.140625q0.578125 -0.8125 1.625 -1.28125q1.0625 -0.46875 2.546875 -0.640625q1.5 -0.171875 3.203125 -0.25l0 -0.296875q0 -0.671875 -0.234375 -1.109375q-0.234375 -0.4375 -0.671875 -0.6875q-0.40625 -0.234375 -1.0 -0.3125q-0.578125 -0.09375 -1.21875 -0.09375q-0.765625 0 -1.71875 0.203125q-0.9375 0.203125 -1.953125 0.59375l-0.109375 0l0 -1.984375q0.578125 -0.15625 1.65625 -0.34375q1.09375 -0.1875 2.140625 -0.1875q1.234375 0 2.140625 0.203125q0.90625 0.203125 1.578125 0.6875q0.65625 0.46875 1.0 1.234375q0.34375 0.765625 0.34375 1.890625l0 7.890625zm-1.953125 -2.859375l0 -3.25q-0.890625 0.0625 -2.109375 0.171875q-1.203125 0.09375 -1.921875 0.296875q-0.84375 0.234375 -1.359375 0.75q-0.515625 0.5 -0.515625 1.375q0 1.0 0.59375 1.515625q0.609375 0.5 1.84375 0.5q1.03125 0 1.890625 -0.390625q0.859375 -0.40625 1.578125 -0.96875zm15.793747 2.859375l-2.46875 0l-3.296875 -4.46875l-3.328125 4.46875l-2.28125 0l4.546875 -5.796875l-4.5 -5.828125l2.46875 0l3.28125 4.390625l3.28125 -4.390625l2.296875 0l-4.578125 5.71875l4.578125 5.90625z" fill-rule="nonzero"/><path fill="#000000" fill-opacity="0.0" d="m299.0656 146.85564l44.346466 0l0 38.771667l-44.346466 0z" fill-rule="evenodd"/><path fill="#ffffff" d="m316.3 171.21564l-1.46875 0l0 -0.9375q-0.1875 0.140625 -0.53125 0.375q-0.328125 0.234375 -0.640625 0.375q-0.359375 0.1875 -0.84375 0.3125q-0.46875 0.125 -1.109375 0.125q-1.1875 0 -2.015625 -0.78125q-0.8125 -0.796875 -0.8125 -2.0q0 -1.0 0.421875 -1.609375q0.4375 -0.609375 1.21875 -0.96875q0.796875 -0.34375 1.90625 -0.46875q1.125 -0.125 2.40625 -0.1875l0 -0.234375q0 -0.5 -0.171875 -0.828125q-0.171875 -0.328125 -0.5 -0.515625q-0.3125 -0.171875 -0.75 -0.234375q-0.4375 -0.0625 -0.921875 -0.0625q-0.578125 0 -1.296875 0.15625q-0.703125 0.140625 -1.453125 0.4375l-0.078125 0l0 -1.5q0.421875 -0.109375 1.234375 -0.25q0.8125 -0.140625 1.609375 -0.140625q0.921875 0 1.59375 0.15625q0.6875 0.140625 1.1875 0.515625q0.5 0.359375 0.75 0.9375q0.265625 0.5625 0.265625 1.40625l0 5.921875zm-1.46875 -2.15625l0 -2.421875q-0.671875 0.03125 -1.578125 0.109375q-0.90625 0.078125 -1.4375 0.234375q-0.640625 0.171875 -1.03125 0.5625q-0.390625 0.375 -0.390625 1.03125q0 0.75 0.453125 1.140625q0.453125 0.375 1.390625 0.375q0.765625 0 1.40625 -0.296875q0.640625 -0.3125 1.1875 -0.734375zm11.3125 2.15625l-6.296875 0l0 -1.1875l2.421875 0l0 -7.796875l-2.421875 0l0 -1.0625q0.5 0 1.0625 -0.078125q0.5625 -0.09375 0.84375 -0.25q0.359375 -0.1875 0.5625 -0.484375q0.21875 -0.3125 0.25 -0.8125l1.203125 0l0 10.484375l2.375 0l0 1.1875z" fill-rule="nonzero"/><path fill="#000000" fill-opacity="0.0" d="m457.82678 166.6798l44.346436 0l0 38.771652l-44.346436 0z" fill-rule="evenodd"/><path fill="#ffffff" d="m475.06116 191.0398l-1.46875 0l0 -0.9375q-0.1875 0.140625 -0.53125 0.375q-0.328125 0.234375 -0.640625 0.375q-0.359375 0.1875 -0.84375 0.3125q-0.46875 0.125 -1.109375 0.125q-1.1875 0 -2.015625 -0.78125q-0.8125 -0.796875 -0.8125 -2.0q0 -1.0 0.421875 -1.609375q0.4375 -0.609375 1.21875 -0.96875q0.796875 -0.34375 1.90625 -0.46875q1.125 -0.125 2.40625 -0.1875l0 -0.234375q0 -0.5 -0.171875 -0.828125q-0.171875 -0.328125 -0.5 -0.515625q-0.3125 -0.171875 -0.75 -0.234375q-0.4375 -0.0625 -0.921875 -0.0625q-0.578125 0 -1.296875 0.15625q-0.703125 0.140625 -1.453125 0.4375l-0.078125 0l0 -1.5q0.421875 -0.109375 1.234375 -0.25q0.8125 -0.140625 1.609375 -0.140625q0.921875 0 1.59375 0.15625q0.6875 0.140625 1.1875 0.515625q0.5 0.359375 0.75 0.9375q0.265625 0.5625 0.265625 1.40625l0 5.921875zm-1.46875 -2.15625l0 -2.421875q-0.671875 0.03125 -1.578125 0.109375q-0.90625 0.078125 -1.4375 0.234375q-0.640625 0.171875 -1.03125 0.5625q-0.390625 0.375 -0.390625 1.03125q0 0.75 0.453125 1.140625q0.453125 0.375 1.390625 0.375q0.765625 0 1.40625 -0.296875q0.640625 -0.3125 1.1875 -0.734375zm11.984375 2.15625l-7.875 0l0 -1.640625q0.8125 -0.703125 1.640625 -1.40625q0.828125 -0.703125 1.53125 -1.390625q1.5 -1.453125 2.046875 -2.3125q0.5625 -0.859375 0.5625 -1.84375q0 -0.90625 -0.59375 -1.421875q-0.59375 -0.515625 -1.671875 -0.515625q-0.703125 0 -1.53125 0.25q-0.828125 0.25 -1.625 0.765625l-0.078125 0l0 -1.640625q0.5625 -0.265625 1.484375 -0.484375q0.921875 -0.234375 1.796875 -0.234375q1.78125 0 2.796875 0.859375q1.015625 0.859375 1.015625 2.34375q0 0.65625 -0.171875 1.234375q-0.15625 0.578125 -0.484375 1.09375q-0.3125 0.484375 -0.71875 0.953125q-0.40625 0.46875 -1.0 1.03125q-0.828125 0.828125 -1.71875 1.59375q-0.890625 0.765625 -1.671875 1.421875l6.265625 0l0 1.34375z" fill-rule="nonzero"/><path fill="#000000" fill-opacity="0.0" d="m677.3543 146.85564l44.346497 0l0 38.771667l-44.346497 0z" fill-rule="evenodd"/><path fill="#ffffff" d="m694.5887 171.21564l-1.46875 0l0 -0.9375q-0.1875 0.140625 -0.53125 0.375q-0.328125 0.234375 -0.640625 0.375q-0.359375 0.1875 -0.84375 0.3125q-0.46875 0.125 -1.109375 0.125q-1.1875 0 -2.015625 -0.78125q-0.8125 -0.796875 -0.8125 -2.0q0 -1.0 0.421875 -1.609375q0.4375 -0.609375 1.21875 -0.96875q0.796875 -0.34375 1.90625 -0.46875q1.125 -0.125 2.40625 -0.1875l0 -0.234375q0 -0.5 -0.171875 -0.828125q-0.171875 -0.328125 -0.5 -0.515625q-0.3125 -0.171875 -0.75 -0.234375q-0.4375 -0.0625 -0.921875 -0.0625q-0.578125 0 -1.296875 0.15625q-0.703125 0.140625 -1.453125 0.4375l-0.078125 0l0 -1.5q0.421875 -0.109375 1.234375 -0.25q0.8125 -0.140625 1.609375 -0.140625q0.921875 0 1.59375 0.15625q0.6875 0.140625 1.1875 0.515625q0.5 0.359375 0.75 0.9375q0.265625 0.5625 0.265625 1.40625l0 5.921875zm-1.46875 -2.15625l0 -2.421875q-0.671875 0.03125 -1.578125 0.109375q-0.90625 0.078125 -1.4375 0.234375q-0.640625 0.171875 -1.03125 0.5625q-0.390625 0.375 -0.390625 1.03125q0 0.75 0.453125 1.140625q0.453125 0.375 1.390625 0.375q0.765625 0 1.40625 -0.296875q0.640625 -0.3125 1.1875 -0.734375zm10.953125 -3.453125q0.375 0.34375 0.609375 0.859375q0.25 0.5 0.25 1.296875q0 0.796875 -0.296875 1.46875q-0.28125 0.65625 -0.796875 1.15625q-0.59375 0.546875 -1.390625 0.8125q-0.78125 0.265625 -1.734375 0.265625q-0.96875 0 -1.90625 -0.234375q-0.9375 -0.234375 -1.53125 -0.515625l0 -1.625l0.109375 0q0.671875 0.4375 1.5625 0.734375q0.90625 0.28125 1.734375 0.28125q0.5 0 1.046875 -0.15625q0.5625 -0.171875 0.90625 -0.5q0.359375 -0.34375 0.53125 -0.75q0.171875 -0.421875 0.171875 -1.046875q0 -0.625 -0.203125 -1.03125q-0.1875 -0.421875 -0.546875 -0.65625q-0.34375 -0.234375 -0.84375 -0.328125q-0.5 -0.09375 -1.078125 -0.09375l-0.703125 0l0 -1.296875l0.546875 0q1.1875 0 1.890625 -0.484375q0.703125 -0.5 0.703125 -1.453125q0 -0.421875 -0.1875 -0.734375q-0.171875 -0.328125 -0.484375 -0.53125q-0.34375 -0.203125 -0.734375 -0.28125q-0.375 -0.078125 -0.859375 -0.078125q-0.734375 0 -1.578125 0.265625q-0.828125 0.265625 -1.578125 0.75l-0.078125 0l0 -1.625q0.5625 -0.28125 1.484375 -0.5q0.921875 -0.234375 1.796875 -0.234375q0.84375 0 1.484375 0.15625q0.65625 0.15625 1.1875 0.5q0.5625 0.375 0.84375 0.90625q0.296875 0.53125 0.296875 1.234375q0 0.96875 -0.6875 1.703125q-0.6875 0.71875 -1.609375 0.90625l0 0.109375q0.375 0.0625 0.859375 0.265625q0.484375 0.1875 0.8125 0.484375z" fill-rule="nonzero"/><path fill="#000000" fill-opacity="0.0" d="m109.87664 307.10367l44.34646 0l0 38.771667l-44.34646 0z" fill-rule="evenodd"/><path fill="#ffffff" d="m128.00165 327.02618q0 1.09375 -0.31250763 1.96875q-0.296875 0.875 -0.828125 1.46875q-0.546875 0.625 -1.21875 0.9375q-0.65625 0.3125 -1.453125 0.3125q-0.75 0 -1.3125 -0.1875q-0.546875 -0.171875 -1.078125 -0.46875l-0.09375 0.40625l-1.375 0l0 -12.15625l1.46875 0l0 4.34375q0.609375 -0.515625 1.296875 -0.828125q0.703125 -0.328125 1.578125 -0.328125q1.546875 0 2.4375 1.1875q0.8906326 1.1875 0.8906326 3.34375zm-1.5156326 0.046875q0 -1.5625 -0.515625 -2.375q-0.515625 -0.8125 -1.65625 -0.8125q-0.640625 0 -1.296875 0.28125q-0.65625 0.28125 -1.21875 0.71875l0 5.0q0.625 0.28125 1.0625 0.390625q0.453125 0.109375 1.03125 0.109375q1.21875 0 1.90625 -0.796875q0.6875 -0.8125 0.6875 -2.515625zm10.828133 4.390625l-6.296875 0l0 -1.1875l2.421875 0l0 -7.796875l-2.421875 0l0 -1.0625q0.5 0 1.0625 -0.078125q0.5625 -0.09375 0.84375 -0.25q0.359375 -0.1875 0.5625 -0.484375q0.21875 -0.3125 0.25 -0.8125l1.203125 0l0 10.484375l2.375 0l0 1.1875z" fill-rule="nonzero"/><path fill="#000000" fill-opacity="0.0" d="m143.53018 355.80054l44.346466 0l0 38.771637l-44.346466 0z" fill-rule="evenodd"/><path fill="#ffffff" d="m161.65518 375.72302q0 1.09375 -0.3125 1.96875q-0.296875 0.875 -0.828125 1.46875q-0.546875 0.625 -1.21875 0.9375q-0.65625 0.3125 -1.453125 0.3125q-0.75 0 -1.3125 -0.1875q-0.546875 -0.171875 -1.078125 -0.46875l-0.09375 0.40625l-1.375 0l0 -12.15625l1.46875 0l0 4.34375q0.609375 -0.515625 1.296875 -0.828125q0.703125 -0.328125 1.578125 -0.328125q1.546875 0 2.4375 1.1875q0.890625 1.1875 0.890625 3.34375zm-1.515625 0.046875q0 -1.5625 -0.515625 -2.375q-0.515625 -0.8125 -1.65625 -0.8125q-0.640625 0 -1.296875 0.28125q-0.65625 0.28125 -1.21875 0.71875l0 5.0q0.625 0.28125 1.0625 0.390625q0.453125 0.109375 1.03125 0.109375q1.21875 0 1.90625 -0.796875q0.6875 -0.8125 0.6875 -2.515625zm11.5 4.390625l-7.875 0l0 -1.640625q0.8125 -0.703125 1.640625 -1.40625q0.828125 -0.703125 1.53125 -1.390625q1.5 -1.453125 2.046875 -2.3125q0.5625 -0.859375 0.5625 -1.84375q0 -0.90625 -0.59375 -1.421875q-0.59375 -0.515625 -1.671875 -0.515625q-0.703125 0 -1.53125 0.25q-0.828125 0.25 -1.625 0.765625l-0.078125 0l0 -1.640625q0.5625 -0.265625 1.484375 -0.484375q0.921875 -0.234375 1.796875 -0.234375q1.78125 0 2.796875 0.859375q1.015625 0.859375 1.015625 2.34375q0 0.65625 -0.171875 1.234375q-0.15625 0.578125 -0.484375 1.09375q-0.3125 0.484375 -0.71875 0.953125q-0.40625 0.46875 -1.0 1.03125q-0.828125 0.828125 -1.71875 1.59375q-0.890625 0.765625 -1.671875 1.421875l6.265625 0l0 1.34375z" fill-rule="nonzero"/><path fill="#000000" fill-opacity="0.0" d="m225.37007 307.10498l44.34645 0l0 38.771667l-44.34645 0z" fill-rule="evenodd"/><path fill="#ffffff" d="m243.49507 327.0275q0 1.09375 -0.3125 1.96875q-0.296875 0.875 -0.828125 1.46875q-0.546875 0.625 -1.21875 0.9375q-0.65625 0.3125 -1.453125 0.3125q-0.75 0 -1.3125 -0.1875q-0.546875 -0.171875 -1.078125 -0.46875l-0.09375 0.40625l-1.375 0l0 -12.15625l1.46875 0l0 4.34375q0.609375 -0.515625 1.296875 -0.828125q0.703125 -0.328125 1.578125 -0.328125q1.546875 0 2.4375 1.1875q0.890625 1.1875 0.890625 3.34375zm-1.515625 0.046875q0 -1.5625 -0.515625 -2.375q-0.515625 -0.8125 -1.65625 -0.8125q-0.640625 0 -1.296875 0.28125q-0.65625 0.28125 -1.21875 0.71875l0 5.0q0.625 0.28125 1.0625 0.390625q0.453125 0.109375 1.03125 0.109375q1.21875 0 1.90625 -0.796875q0.6875 -0.8125 0.6875 -2.515625zm10.46875 -1.21875q0.375 0.34375 0.609375 0.859375q0.25 0.5 0.25 1.296875q0 0.796875 -0.296875 1.46875q-0.28125 0.65625 -0.796875 1.15625q-0.59375 0.546875 -1.390625 0.8125q-0.78125 0.265625 -1.734375 0.265625q-0.96875 0 -1.90625 -0.234375q-0.9375 -0.234375 -1.53125 -0.515625l0 -1.625l0.109375 0q0.671875 0.4375 1.5625 0.734375q0.90625 0.28125 1.734375 0.28125q0.5 0 1.046875 -0.15625q0.5625 -0.171875 0.90625 -0.5q0.359375 -0.34375 0.53125 -0.75q0.171875 -0.421875 0.171875 -1.046875q0 -0.625 -0.203125 -1.03125q-0.1875 -0.421875 -0.546875 -0.65625q-0.34375 -0.234375 -0.84375 -0.328125q-0.5 -0.09375 -1.078125 -0.09375l-0.703125 0l0 -1.296875l0.546875 0q1.1875 0 1.890625 -0.484375q0.703125 -0.5 0.703125 -1.453125q0 -0.421875 -0.1875 -0.734375q-0.171875 -0.328125 -0.484375 -0.53125q-0.34375 -0.203125 -0.734375 -0.28125q-0.375 -0.078125 -0.859375 -0.078125q-0.734375 0 -1.578125 0.265625q-0.828125 0.265625 -1.578125 0.75l-0.078125 0l0 -1.625q0.5625 -0.28125 1.484375 -0.5q0.921875 -0.234375 1.796875 -0.234375q0.84375 0 1.484375 0.15625q0.65625 0.15625 1.1875 0.5q0.5625 0.375 0.84375 0.90625q0.296875 0.53125 0.296875 1.234375q0 0.96875 -0.6875 1.703125q-0.6875 0.71875 -1.609375 0.90625l0 0.109375q0.375 0.0625 0.859375 0.265625q0.484375 0.1875 0.8125 0.484375z" fill-rule="nonzero"/><path fill="#000000" fill-opacity="0.0" d="m415.78873 307.10498l44.346436 0l0 38.771667l-44.346436 0z" fill-rule="evenodd"/><path fill="#ffffff" d="m432.69498 330.91812q-0.734375 0.34375 -1.40625 0.546875q-0.65625 0.203125 -1.390625 0.203125q-0.953125 0 -1.75 -0.28125q-0.78125 -0.28125 -1.34375 -0.84375q-0.5625 -0.5625 -0.875 -1.421875q-0.3125 -0.859375 -0.3125 -2.015625q0 -2.140625 1.171875 -3.359375q1.171875 -1.21875 3.109375 -1.21875q0.75 0 1.46875 0.21875q0.71875 0.203125 1.328125 0.515625l0 1.625l-0.078125 0q-0.671875 -0.515625 -1.390625 -0.796875q-0.71875 -0.28125 -1.390625 -0.28125q-1.25 0 -1.984375 0.84375q-0.71875 0.828125 -0.71875 2.453125q0 1.578125 0.703125 2.4375q0.71875 0.84375 2.0 0.84375q0.4375 0 0.890625 -0.109375q0.46875 -0.125 0.84375 -0.3125q0.3125 -0.171875 0.59375 -0.34375q0.28125 -0.1875 0.453125 -0.328125l0.078125 0l0 1.625zm8.8984375 0.546875l-6.296875 0l0 -1.1875l2.421875 0l0 -7.796875l-2.421875 0l0 -1.0625q0.5 0 1.0625 -0.078125q0.5625 -0.09375 0.84375 -0.25q0.359375 -0.1875 0.5625 -0.484375q0.21875 -0.3125 0.25 -0.8125l1.203125 0l0 10.484375l2.375 0l0 1.1875z" fill-rule="nonzero"/><path fill="#000000" fill-opacity="0.0" d="m460.13647 355.80054l44.346466 0l0 38.771637l-44.346466 0z" fill-rule="evenodd"/><path fill="#ffffff" d="m477.04272 379.61365q-0.734375 0.34375 -1.40625 0.546875q-0.65625 0.203125 -1.390625 0.203125q-0.953125 0 -1.75 -0.28125q-0.78125 -0.28125 -1.34375 -0.84375q-0.5625 -0.5625 -0.875 -1.421875q-0.3125 -0.859375 -0.3125 -2.015625q0 -2.140625 1.171875 -3.359375q1.171875 -1.21875 3.109375 -1.21875q0.75 0 1.46875 0.21875q0.71875 0.203125 1.328125 0.515625l0 1.625l-0.078125 0q-0.671875 -0.515625 -1.390625 -0.796875q-0.71875 -0.28125 -1.390625 -0.28125q-1.25 0 -1.984375 0.84375q-0.71875 0.828125 -0.71875 2.453125q0 1.578125 0.703125 2.4375q0.71875 0.84375 2.0 0.84375q0.4375 0 0.890625 -0.109375q0.46875 -0.125 0.84375 -0.3125q0.3125 -0.171875 0.59375 -0.34375q0.28125 -0.1875 0.453125 -0.328125l0.078125 0l0 1.625zm9.5703125 0.546875l-7.875 0l0 -1.640625q0.8125 -0.703125 1.640625 -1.40625q0.828125 -0.703125 1.53125 -1.390625q1.5 -1.453125 2.046875 -2.3125q0.5625 -0.859375 0.5625 -1.84375q0 -0.90625 -0.59375 -1.421875q-0.59375 -0.515625 -1.671875 -0.515625q-0.703125 0 -1.53125 0.25q-0.828125 0.25 -1.625 0.765625l-0.078125 0l0 -1.640625q0.5625 -0.265625 1.484375 -0.484375q0.921875 -0.234375 1.796875 -0.234375q1.78125 0 2.796875 0.859375q1.015625 0.859375 1.015625 2.34375q0 0.65625 -0.171875 1.234375q-0.15625 0.578125 -0.484375 1.09375q-0.3125 0.484375 -0.71875 0.953125q-0.40625 0.46875 -1.0 1.03125q-0.828125 0.828125 -1.71875 1.59375q-0.890625 0.765625 -1.671875 1.421875l6.265625 0l0 1.34375z" fill-rule="nonzero"/><path fill="#000000" fill-opacity="0.0" d="m545.7441 307.10498l44.346497 0l0 38.771667l-44.346497 0z" fill-rule="evenodd"/><path fill="#ffffff" d="m562.6503 330.91812q-0.734375 0.34375 -1.40625 0.546875q-0.65625 0.203125 -1.390625 0.203125q-0.953125 0 -1.75 -0.28125q-0.78125 -0.28125 -1.34375 -0.84375q-0.5625 -0.5625 -0.875 -1.421875q-0.3125 -0.859375 -0.3125 -2.015625q0 -2.140625 1.171875 -3.359375q1.171875 -1.21875 3.109375 -1.21875q0.75 0 1.46875 0.21875q0.71875 0.203125 1.328125 0.515625l0 1.625l-0.078125 0q-0.671875 -0.515625 -1.390625 -0.796875q-0.71875 -0.28125 -1.390625 -0.28125q-1.25 0 -1.984375 0.84375q-0.71875 0.828125 -0.71875 2.453125q0 1.578125 0.703125 2.4375q0.71875 0.84375 2.0 0.84375q0.4375 0 0.890625 -0.109375q0.46875 -0.125 0.84375 -0.3125q0.3125 -0.171875 0.59375 -0.34375q0.28125 -0.1875 0.453125 -0.328125l0.078125 0l0 1.625zm8.5390625 -5.0625q0.375 0.34375 0.609375 0.859375q0.25 0.5 0.25 1.296875q0 0.796875 -0.296875 1.46875q-0.28125 0.65625 -0.796875 1.15625q-0.59375 0.546875 -1.390625 0.8125q-0.78125 0.265625 -1.734375 0.265625q-0.96875 0 -1.90625 -0.234375q-0.9375 -0.234375 -1.53125 -0.515625l0 -1.625l0.109375 0q0.671875 0.4375 1.5625 0.734375q0.90625 0.28125 1.734375 0.28125q0.5 0 1.046875 -0.15625q0.5625 -0.171875 0.90625 -0.5q0.359375 -0.34375 0.53125 -0.75q0.171875 -0.421875 0.171875 -1.046875q0 -0.625 -0.203125 -1.03125q-0.1875 -0.421875 -0.546875 -0.65625q-0.34375 -0.234375 -0.84375 -0.328125q-0.5 -0.09375 -1.078125 -0.09375l-0.703125 0l0 -1.296875l0.546875 0q1.1875 0 1.890625 -0.484375q0.703125 -0.5 0.703125 -1.453125q0 -0.421875 -0.1875 -0.734375q-0.171875 -0.328125 -0.484375 -0.53125q-0.34375 -0.203125 -0.734375 -0.28125q-0.375 -0.078125 -0.859375 -0.078125q-0.734375 0 -1.578125 0.265625q-0.828125 0.265625 -1.578125 0.75l-0.078125 0l0 -1.625q0.5625 -0.28125 1.484375 -0.5q0.921875 -0.234375 1.796875 -0.234375q0.84375 0 1.484375 0.15625q0.65625 0.15625 1.1875 0.5q0.5625 0.375 0.84375 0.90625q0.296875 0.53125 0.296875 1.234375q0 0.96875 -0.6875 1.703125q-0.6875 0.71875 -1.609375 0.90625l0 0.109375q0.375 0.0625 0.859375 0.265625q0.484375 0.1875 0.8125 0.484375z" fill-rule="nonzero"/><path fill="#000000" fill-opacity="0.0" d="m733.89764 307.10498l44.346436 0l0 38.771667l-44.346436 0z" fill-rule="evenodd"/><path fill="#ffffff" d="m751.4289 331.465l-1.46875 0l0 -0.921875q-0.640625 0.546875 -1.328125 0.859375q-0.6875 0.3125 -1.484375 0.3125q-1.5625 0 -2.484375 -1.203125q-0.921875 -1.21875 -0.921875 -3.34375q0 -1.109375 0.3125 -1.96875q0.328125 -0.875 0.859375 -1.484375q0.53125 -0.59375 1.234375 -0.90625q0.71875 -0.3125 1.46875 -0.3125q0.6875 0 1.21875 0.140625q0.53125 0.140625 1.125 0.453125l0 -3.78125l1.46875 0l0 12.15625zm-1.46875 -2.15625l0 -5.0q-0.59375 -0.265625 -1.0625 -0.359375q-0.46875 -0.109375 -1.03125 -0.109375q-1.234375 0 -1.921875 0.859375q-0.6875 0.859375 -0.6875 2.4375q0 1.546875 0.53125 2.359375q0.53125 0.8125 1.703125 0.8125q0.625 0 1.265625 -0.28125q0.640625 -0.28125 1.203125 -0.71875zm11.375 2.15625l-6.296875 0l0 -1.1875l2.421875 0l0 -7.796875l-2.421875 0l0 -1.0625q0.5 0 1.0625 -0.078125q0.5625 -0.09375 0.84375 -0.25q0.359375 -0.1875 0.5625 -0.484375q0.21875 -0.3125 0.25 -0.8125l1.203125 0l0 10.484375l2.375 0l0 1.1875z" fill-rule="nonzero"/><path fill="#000000" fill-opacity="0.0" d="m772.12335 355.80054l44.346436 0l0 38.771637l-44.346436 0z" fill-rule="evenodd"/><path fill="#ffffff" d="m789.6546 380.16052l-1.46875 0l0 -0.921875q-0.640625 0.546875 -1.328125 0.859375q-0.6875 0.3125 -1.484375 0.3125q-1.5625 0 -2.484375 -1.203125q-0.921875 -1.21875 -0.921875 -3.34375q0 -1.109375 0.3125 -1.96875q0.328125 -0.875 0.859375 -1.484375q0.53125 -0.59375 1.234375 -0.90625q0.71875 -0.3125 1.46875 -0.3125q0.6875 0 1.21875 0.140625q0.53125 0.140625 1.125 0.453125l0 -3.78125l1.46875 0l0 12.15625zm-1.46875 -2.15625l0 -5.0q-0.59375 -0.265625 -1.0625 -0.359375q-0.46875 -0.109375 -1.03125 -0.109375q-1.234375 0 -1.921875 0.859375q-0.6875 0.859375 -0.6875 2.4375q0 1.546875 0.53125 2.359375q0.53125 0.8125 1.703125 0.8125q0.625 0 1.265625 -0.28125q0.640625 -0.28125 1.203125 -0.71875zm12.046875 2.15625l-7.875 0l0 -1.640625q0.8125 -0.703125 1.640625 -1.40625q0.828125 -0.703125 1.53125 -1.390625q1.5 -1.453125 2.046875 -2.3125q0.5625 -0.859375 0.5625 -1.84375q0 -0.90625 -0.59375 -1.421875q-0.59375 -0.515625 -1.671875 -0.515625q-0.703125 0 -1.53125 0.25q-0.828125 0.25 -1.625 0.765625l-0.078125 0l0 -1.640625q0.5625 -0.265625 1.484375 -0.484375q0.921875 -0.234375 1.796875 -0.234375q1.78125 0 2.796875 0.859375q1.015625 0.859375 1.015625 2.34375q0 0.65625 -0.171875 1.234375q-0.15625 0.578125 -0.484375 1.09375q-0.3125 0.484375 -0.71875 0.953125q-0.40625 0.46875 -1.0 1.03125q-0.828125 0.828125 -1.71875 1.59375q-0.890625 0.765625 -1.671875 1.421875l6.265625 0l0 1.34375z" fill-rule="nonzero"/><path fill="#000000" fill-opacity="0.0" d="m857.7559 307.10498l44.346436 0l0 38.771667l-44.346436 0z" fill-rule="evenodd"/><path fill="#ffffff" d="m875.2872 331.465l-1.46875 0l0 -0.921875q-0.640625 0.546875 -1.328125 0.859375q-0.6875 0.3125 -1.484375 0.3125q-1.5625 0 -2.484375 -1.203125q-0.921875 -1.21875 -0.921875 -3.34375q0 -1.109375 0.3125 -1.96875q0.328125 -0.875 0.859375 -1.484375q0.53125 -0.59375 1.234375 -0.90625q0.71875 -0.3125 1.46875 -0.3125q0.6875 0 1.21875 0.140625q0.53125 0.140625 1.125 0.453125l0 -3.78125l1.46875 0l0 12.15625zm-1.46875 -2.15625l0 -5.0q-0.59375 -0.265625 -1.0625 -0.359375q-0.46875 -0.109375 -1.03125 -0.109375q-1.234375 0 -1.921875 0.859375q-0.6875 0.859375 -0.6875 2.4375q0 1.546875 0.53125 2.359375q0.53125 0.8125 1.703125 0.8125q0.625 0 1.265625 -0.28125q0.640625 -0.28125 1.203125 -0.71875zm11.015625 -3.453125q0.375 0.34375 0.609375 0.859375q0.25 0.5 0.25 1.296875q0 0.796875 -0.296875 1.46875q-0.28125 0.65625 -0.796875 1.15625q-0.59375 0.546875 -1.390625 0.8125q-0.78125 0.265625 -1.734375 0.265625q-0.96875 0 -1.90625 -0.234375q-0.9375 -0.234375 -1.53125 -0.515625l0 -1.625l0.109375 0q0.671875 0.4375 1.5625 0.734375q0.90625 0.28125 1.734375 0.28125q0.5 0 1.046875 -0.15625q0.5625 -0.171875 0.90625 -0.5q0.359375 -0.34375 0.53125 -0.75q0.171875 -0.421875 0.171875 -1.046875q0 -0.625 -0.203125 -1.03125q-0.1875 -0.421875 -0.546875 -0.65625q-0.34375 -0.234375 -0.84375 -0.328125q-0.5 -0.09375 -1.078125 -0.09375l-0.703125 0l0 -1.296875l0.546875 0q1.1875 0 1.890625 -0.484375q0.703125 -0.5 0.703125 -1.453125q0 -0.421875 -0.1875 -0.734375q-0.171875 -0.328125 -0.484375 -0.53125q-0.34375 -0.203125 -0.734375 -0.28125q-0.375 -0.078125 -0.859375 -0.078125q-0.734375 0 -1.578125 0.265625q-0.828125 0.265625 -1.578125 0.75l-0.078125 0l0 -1.625q0.5625 -0.28125 1.484375 -0.5q0.921875 -0.234375 1.796875 -0.234375q0.84375 0 1.484375 0.15625q0.65625 0.15625 1.1875 0.5q0.5625 0.375 0.84375 0.90625q0.296875 0.53125 0.296875 1.234375q0 0.96875 -0.6875 1.703125q-0.6875 0.71875 -1.609375 0.90625l0 0.109375q0.375 0.0625 0.859375 0.265625q0.484375 0.1875 0.8125 0.484375z" fill-rule="nonzero"/></g></svg>